FILE "Mazinger Z (2018)(Nova32 Animation Studios)(MX)(en).bin" BINARY
  TRACK 01 MODE1/2352
    INDEX 01 00:00:00
  TRACK 02 AUDIO
    PREGAP 00:02:00
    INDEX 01 00:10:08
  TRACK 03 AUDIO
    INDEX 01 01:55:54
  TRACK 04 AUDIO
    INDEX 01 04:23:11
  TRACK 05 AUDIO
    INDEX 01 07:14:30
  TRACK 06 AUDIO
    INDEX 01 09:41:62
  TRACK 07 AUDIO
    INDEX 01 15:04:70
